# xmcd
#
# Track frame offsets: 
#        150
#        20567
#        40797
#        54837
#        65192
#        79360
#        90662
#        102710
#        114915
#        125290
#        134792
#        151107
#        162142
#        174175
#        187882
#        199182
#        214967
#        263922
#        275550
#        287322
#
# Disc length: 3997 seconds
#
# Revision: 1
# Processed by: cddbd v1.5.1PL0 Copyright (c) Steve Scherf et al.
# Submitted via: ExactAudioCopy v0.95b3
#
DISCID=1c0f9b14
DTITLE=Creedence Clearwater Revival - Chronicle Vol1
DYEAR=1900
DGENRE=
TTITLE0=Susie Q
TTITLE1=I put a spell on you
TTITLE2=Proud Mary
TTITLE3=Bad moon raising
TTITLE4=Lodi
TTITLE5=Green river
TTITLE6=Commotion
TTITLE7=Down on the corner
TTITLE8=Fortunate son
TTITLE9=Travelin' band
TTITLE10=Someday never comes
TTITLE11=Who'll stop the rain
TTITLE12=Up around the bend
TTITLE13=Run through the jungle
TTITLE14=Lookin' out my back door
TTITLE15=Long as I can see the light
TTITLE16=I heard It through the grapevine
TTITLE17=Have you ever seen the rain?
TTITLE18=Hey tonight
TTITLE19=Sweet hitch-hiker
EXTD=
EXTT0=
EXTT1=
EXTT2=
EXTT3=
EXTT4=
EXTT5=
EXTT6=
EXTT7=
EXTT8=
EXTT9=
EXTT10=
EXTT11=
EXTT12=
EXTT13=
EXTT14=
EXTT15=
EXTT16=
EXTT17=
EXTT18=
EXTT19=
PLAYORDER=
